<svg xmlns="http://www.w3.org/2000/svg" width="128" height="128" viewBox="0 0 128 128">
  <g id="Group_1597" data-name="Group 1597" transform="translate(-746 -1524)">
    <rect id="Rectangle_1352" data-name="Rectangle 1352" width="128" height="128" rx="10" transform="translate(746 1524)" fill="#2a364d"/>
    <g id="Group_1595" data-name="Group 1595" transform="translate(781 1560)">
      <rect id="Rectangle_2745" data-name="Rectangle 2745" width="19.724" height="1.75" transform="translate(26.108 18.239)" fill="#fff"/>
      <rect id="Rectangle_2746" data-name="Rectangle 2746" width="9.352" height="1.75" transform="translate(31.293 24.47)" fill="#fff"/>
      <path id="Path_3570" data-name="Path 3570" d="M17.25,32.906a2.917,2.917,0,1,0-2.916-2.917A2.921,2.921,0,0,0,17.25,32.906Zm0-4.084a1.167,1.167,0,1,1-1.166,1.167A1.168,1.168,0,0,1,17.25,28.822Z" transform="translate(5.5 20.304)" fill="#fff"/>
      <path id="Path_3571" data-name="Path 3571" d="M48.076,11H38.5V4.266A4.23,4.23,0,0,0,34.319,0H11.181A4.23,4.23,0,0,0,7,4.266V51.735A4.229,4.229,0,0,0,11.181,56H34.319A4.23,4.23,0,0,0,38.5,51.734V32.847h9.578a2.677,2.677,0,0,0,2.672-2.674v-16.5A2.678,2.678,0,0,0,48.076,11ZM8.75,4.266A2.477,2.477,0,0,1,11.181,1.75H34.319A2.477,2.477,0,0,1,36.75,4.266v.109h-28Zm28,47.467a2.477,2.477,0,0,1-2.431,2.516H11.181A2.477,2.477,0,0,1,8.75,51.734V46.375h28Zm0-7.109h-28V6.125h28V11h-13.4a2.676,2.676,0,0,0-2.672,2.672v16.5a2.677,2.677,0,0,0,2.672,2.674h.516v6.737l9.644-6.737H36.75ZM49,30.172a.924.924,0,0,1-.922.924H32.963L25.62,36.227V31.1H23.354a.924.924,0,0,1-.922-.924v-16.5a.922.922,0,0,1,.922-.922H48.078a.923.923,0,0,1,.922.922Z" fill="#fff"/>
    </g>
  </g>
</svg>
