<svg xmlns="http://www.w3.org/2000/svg" width="128" height="128" viewBox="0 0 128 128">
  <g id="days-img" transform="translate(-746 -1255)">
    <g id="days-img-2" data-name="days-img">
      <rect id="Rectangle_1349" data-name="Rectangle 1349" width="128" height="128" rx="10" transform="translate(746 1255)" fill="#2a364d"/>
    </g>
    <g id="Group_1591" data-name="Group 1591" transform="translate(327 -2077)">
      <g id="Group_1590" data-name="Group 1590" transform="translate(449 3362)">
        <path id="Path_3559" data-name="Path 3559" d="M62.412,41.11a1.151,1.151,0,0,0,.788-1.092V31.182a1.151,1.151,0,0,0-.788-1.092L57.157,28.35l-1.192-2.872,2.224-4.684a1.151,1.151,0,0,0-.1-1.16,27.648,27.648,0,0,0-6.522-6.522,1.154,1.154,0,0,0-1.16-.1l-4.684,2.225L42.85,14.043,41.11,8.788A1.15,1.15,0,0,0,40.019,8H31.182a1.15,1.15,0,0,0-1.092.789l-1.74,5.255-2.872,1.193L20.794,13.01a1.154,1.154,0,0,0-1.16.1,27.632,27.632,0,0,0-6.522,6.523,1.149,1.149,0,0,0-.1,1.159l2.224,4.684L14.043,28.35,8.788,30.09A1.151,1.151,0,0,0,8,31.182v8.836a1.151,1.151,0,0,0,.788,1.092l5.2,1.722a22.691,22.691,0,0,0,1.223,2.944l-2.2,4.631a1.149,1.149,0,0,0,.1,1.159,27.634,27.634,0,0,0,6.522,6.523,1.159,1.159,0,0,0,1.16.1l4.631-2.2a22.662,22.662,0,0,0,2.944,1.223l1.722,5.2a1.15,1.15,0,0,0,1.092.788h8.837a1.15,1.15,0,0,0,1.092-.789l1.721-5.2a22.7,22.7,0,0,0,2.944-1.223l4.631,2.2a1.154,1.154,0,0,0,1.16-.1,27.632,27.632,0,0,0,6.522-6.523,1.149,1.149,0,0,0,.1-1.159l-2.2-4.631a22.782,22.782,0,0,0,1.224-2.944Zm-6.477-.277a1.148,1.148,0,0,0-.738.756,20.362,20.362,0,0,1-1.5,3.625,1.149,1.149,0,0,0-.024,1.033l2.15,4.527a25.324,25.324,0,0,1-5.044,5.044l-4.527-2.15a1.149,1.149,0,0,0-1.034.024A20.354,20.354,0,0,1,41.588,55.2a1.148,1.148,0,0,0-.756.738L39.188,60.9H32.012l-1.644-4.965a1.148,1.148,0,0,0-.756-.738,20.308,20.308,0,0,1-3.624-1.506,1.15,1.15,0,0,0-1.035-.024l-4.527,2.15a25.312,25.312,0,0,1-5.044-5.044l2.15-4.527a1.151,1.151,0,0,0-.024-1.034A20.371,20.371,0,0,1,16,41.588a1.148,1.148,0,0,0-.738-.756L10.3,39.187V32.013l4.965-1.645a1.15,1.15,0,0,0,.7-.65l1.59-3.83a1.148,1.148,0,0,0-.023-.934l-2.15-4.527a25.344,25.344,0,0,1,5.044-5.045l4.527,2.151a1.148,1.148,0,0,0,.934.024l3.83-1.59a1.151,1.151,0,0,0,.651-.7L32.012,10.3h7.176l1.644,4.965a1.151,1.151,0,0,0,.651.7l3.831,1.59a1.148,1.148,0,0,0,.934-.024l4.527-2.15a25.339,25.339,0,0,1,5.044,5.044l-2.15,4.527a1.15,1.15,0,0,0-.024.934l1.59,3.83a1.15,1.15,0,0,0,.7.65L60.9,32.013v7.174Z" transform="translate(-1.1 -1.1)" fill="#fff"/>
        <path id="Path_3560" data-name="Path 3560" d="M34.4,16A18.4,18.4,0,1,0,52.8,34.4,18.4,18.4,0,0,0,34.4,16Zm0,34.5A16.1,16.1,0,1,1,50.5,34.4,16.1,16.1,0,0,1,34.4,50.5Z" transform="translate(0.1 0.1)" fill="#fff"/>
        <path id="Path_3561" data-name="Path 3561" d="M41.936,24.075a1.15,1.15,0,0,0-.813.337L30.35,35.185l-4.321-4.32a1.15,1.15,0,0,0-1.626,0l-4.066,4.065a1.15,1.15,0,0,0,0,1.626L29.282,45.5a1.145,1.145,0,0,0,1.068.309,1.154,1.154,0,0,0,1.068-.309l15.4-15.4a1.15,1.15,0,0,0,0-1.626L42.75,24.412A1.15,1.15,0,0,0,41.936,24.075ZM30.383,43.284h-.066l-7.541-7.54,2.44-2.439,4.321,4.32a1.15,1.15,0,0,0,1.626,0L41.937,26.851l2.44,2.44Z" transform="translate(0.7 1.311)" fill="#fff"/>
        <rect id="Rectangle_2729" data-name="Rectangle 2729" width="3" height="5" transform="translate(33 0)" fill="#fff"/>
        <rect id="Rectangle_2730" data-name="Rectangle 2730" width="3" height="5" transform="translate(33 64)" fill="#fff"/>
        <rect id="Rectangle_2731" data-name="Rectangle 2731" width="5" height="3" transform="translate(64 33)" fill="#fff"/>
        <rect id="Rectangle_2732" data-name="Rectangle 2732" width="5" height="3" transform="translate(0 33)" fill="#fff"/>
        <rect id="Rectangle_2733" data-name="Rectangle 2733" width="4.6" height="2.3" transform="matrix(0.707, -0.707, 0.707, 0.707, 54.83, 12.544)" fill="#fff"/>
        <rect id="Rectangle_2734" data-name="Rectangle 2734" width="4.6" height="2.3" transform="matrix(0.707, -0.707, 0.707, 0.707, 9.292, 58.082)" fill="#fff"/>
        <rect id="Rectangle_2735" data-name="Rectangle 2735" width="2.3" height="4.6" transform="matrix(0.707, -0.707, 0.707, 0.707, 54.83, 56.456)" fill="#fff"/>
        <rect id="Rectangle_2736" data-name="Rectangle 2736" width="2.3" height="4.6" transform="matrix(0.707, -0.707, 0.707, 0.707, 9.292, 10.918)" fill="#fff"/>
        <rect id="Rectangle_2737" data-name="Rectangle 2737" width="2" height="2" transform="translate(0 0)" fill="#fff"/>
        <rect id="Rectangle_2738" data-name="Rectangle 2738" width="2" height="2" transform="translate(0 5)" fill="#fff"/>
        <rect id="Rectangle_2739" data-name="Rectangle 2739" width="2" height="2" transform="translate(5 0)" fill="#fff"/>
        <rect id="Rectangle_2740" data-name="Rectangle 2740" width="2" height="2" transform="translate(67 67)" fill="#fff"/>
        <rect id="Rectangle_2741" data-name="Rectangle 2741" width="2" height="2" transform="translate(67 62)" fill="#fff"/>
        <rect id="Rectangle_2742" data-name="Rectangle 2742" width="2" height="2" transform="translate(62 67)" fill="#fff"/>
      </g>
    </g>
  </g>
</svg>
