<svg xmlns="http://www.w3.org/2000/svg" width="128" height="128" viewBox="0 0 128 128">
  <g id="experience-img" transform="translate(-358 -1255)">
    <rect id="Rectangle_1348" data-name="Rectangle 1348" width="128" height="128" rx="10" transform="translate(358 1255)" fill="#2a364d"/>
    <g id="Group_1589" data-name="Group 1589" transform="translate(383.207 1283.537)">
      <path id="Path_3558" data-name="Path 3558" d="M38.441,1.464a1.3,1.3,0,0,0-1.224.872l-2.4,6.9-7.286.15a1.3,1.3,0,0,0-.758,2.337l5.809,4.412L30.478,23.12a1.3,1.3,0,0,0,1.982,1.445l5.981-4.174,5.979,4.174A1.3,1.3,0,0,0,46.4,23.12l-2.111-6.987L50.1,11.72a1.3,1.3,0,0,0-.76-2.337l-7.284-.15-2.4-6.9a1.3,1.3,0,0,0-1.222-.872Zm0,5.254,1.465,4.225a1.3,1.3,0,0,0,1.2.872l4.458.089-3.556,2.7a1.3,1.3,0,0,0-.456,1.409L42.843,20.3l-3.662-2.555a1.294,1.294,0,0,0-1.483,0L34.036,20.3l1.293-4.281a1.3,1.3,0,0,0-.456-1.409l-3.556-2.7,4.458-.089a1.3,1.3,0,0,0,1.2-.872ZM11.425,19.858a1.292,1.292,0,0,0-1.219.874L8.193,26.594l-6.138.124a1.293,1.293,0,0,0-1.2.9A1.313,1.313,0,0,0,1.3,29.06l4.891,3.748L4.414,38.744a1.312,1.312,0,0,0,.474,1.436,1.28,1.28,0,0,0,1.5.017l5.038-3.546L16.463,40.2a1.28,1.28,0,0,0,1.5-.014,1.312,1.312,0,0,0,.474-1.438l-1.779-5.936,4.891-3.748a1.313,1.313,0,0,0,.445-1.442,1.293,1.293,0,0,0-1.2-.9l-6.136-.124-2.015-5.862a1.292,1.292,0,0,0-1.219-.874Zm54,.01a1.292,1.292,0,0,0-1.219.872L62.186,26.6l-6.136.124a1.293,1.293,0,0,0-1.2.9,1.313,1.313,0,0,0,.448,1.444l4.891,3.748-1.779,5.933a1.312,1.312,0,0,0,.474,1.438,1.28,1.28,0,0,0,1.5.014l5.038-3.546L70.458,40.2a1.28,1.28,0,0,0,1.5-.017,1.312,1.312,0,0,0,.474-1.436l-1.779-5.933,4.891-3.748a1.313,1.313,0,0,0,.448-1.443,1.293,1.293,0,0,0-1.2-.9L68.651,26.6,66.639,20.74a1.292,1.292,0,0,0-1.219-.872Zm-54,5.269,1.092,3.173a1.292,1.292,0,0,0,1.194.877l3.315.066L14.382,31.28a1.313,1.313,0,0,0-.456,1.417l.963,3.216-2.727-1.921a1.28,1.28,0,0,0-1.472,0L7.963,35.908,8.923,32.7a1.313,1.313,0,0,0-.456-1.417L5.824,29.252l3.317-.066a1.292,1.292,0,0,0,1.194-.877Zm54,.01,1.09,3.17a1.292,1.292,0,0,0,1.194.877l3.317.066-2.643,2.027a1.313,1.313,0,0,0-.456,1.417l.961,3.216L66.155,34a1.28,1.28,0,0,0-1.472,0l-2.727,1.919.963-3.214a1.313,1.313,0,0,0-.456-1.417L59.819,29.26l3.315-.066a1.292,1.292,0,0,0,1.194-.877ZM38.289,29.97a9.83,9.83,0,0,0-5.51,17.989A17.324,17.324,0,0,0,20.924,64.4v4.455a1.3,1.3,0,0,0,1.3,1.3H54.362a1.3,1.3,0,0,0,1.293-1.3V64.4A17.324,17.324,0,0,0,43.8,47.959a9.826,9.826,0,0,0-5.51-17.989Zm0,2.6a7.246,7.246,0,1,1-7.261,7.241A7.237,7.237,0,0,1,38.289,32.567Zm0,17.1A14.69,14.69,0,0,1,53.059,64.4v3.16H23.519V64.4a14.69,14.69,0,0,1,14.77-14.732Z" transform="translate(0 0)" fill="#fff"/>
    </g>
  </g>
</svg>
