<svg xmlns="http://www.w3.org/2000/svg" width="146.715" height="48.296" viewBox="0 0 146.715 48.296">
  <g id="Google-logo" transform="translate(-0.36 -0.47)">
    <path id="Path_589" data-name="Path 589" d="M95.463,37.068A12.107,12.107,0,1,1,83.357,25,11.92,11.92,0,0,1,95.463,37.068Zm-5.3,0c0-4.342-3.15-7.313-6.807-7.313s-6.807,2.971-6.807,7.313a6.824,6.824,0,1,0,13.614,0Z" transform="translate(-32.318 -11.183)" fill="#ea4335"/>
    <path id="Path_590" data-name="Path 590" d="M143.463,37.068A12.107,12.107,0,1,1,131.357,25,11.92,11.92,0,0,1,143.463,37.068Zm-5.3,0c0-4.342-3.15-7.313-6.807-7.313s-6.807,2.971-6.807,7.313a6.824,6.824,0,1,0,13.614,0Z" transform="translate(-54.2 -11.183)" fill="#fbbc05"/>
    <path id="Path_591" data-name="Path 591" d="M190.366,25.729V47.4c0,8.913-5.256,12.553-11.47,12.553a11.493,11.493,0,0,1-10.7-7.112l4.614-1.921A6.666,6.666,0,0,0,178.89,55.2c3.977,0,6.442-2.454,6.442-7.073V46.389h-.185a8.217,8.217,0,0,1-6.355,2.742,11.947,11.947,0,0,1-11.562-12.02C167.23,30.3,172.758,25,178.792,25a8.363,8.363,0,0,1,6.355,2.7h.185V25.735h5.033Zm-4.658,11.383c0-4.25-2.835-7.356-6.442-7.356-3.656,0-6.72,3.107-6.72,7.356,0,4.206,3.063,7.269,6.72,7.269C182.873,44.381,185.708,41.318,185.708,37.112Z" transform="translate(-76.074 -11.183)" fill="#4285f4"/>
    <path id="Path_592" data-name="Path 592" d="M220.669,3V38.367H215.5V3Z" transform="translate(-98.079 -1.153)" fill="#34a853"/>
    <path id="Path_593" data-name="Path 593" d="M247.008,41.036l4.114,2.742a12.013,12.013,0,0,1-10.055,5.349A11.808,11.808,0,0,1,229.09,37.058c0-7.177,5.164-12.068,11.383-12.068,6.263,0,9.326,4.984,10.327,7.677l.55,1.371L235.217,40.72a6.142,6.142,0,0,0,5.849,3.656A6.888,6.888,0,0,0,247.008,41.036Zm-12.662-4.342,10.784-4.478a4.673,4.673,0,0,0-4.478-2.557A6.62,6.62,0,0,0,234.346,36.694Z" transform="translate(-104.275 -11.178)" fill="#ea4335"/>
    <path id="Path_594" data-name="Path 594" d="M19.366,22.746v-5.12H36.62a16.965,16.965,0,0,1,.256,3.091c0,3.841-1.05,8.592-4.435,11.976-3.292,3.428-7.5,5.256-13.07,5.256A19,19,0,0,1,.36,19.209,19,19,0,0,1,19.371.47,17.856,17.856,0,0,1,32.212,5.634L28.6,9.247A13.051,13.051,0,0,0,19.366,5.59,13.442,13.442,0,0,0,5.926,19.209a13.442,13.442,0,0,0,13.44,13.619,12.537,12.537,0,0,0,9.462-3.749A10.613,10.613,0,0,0,31.6,22.741Z" transform="translate(0 0)" fill="#4285f4"/>
  </g>
</svg>
