<svg xmlns="http://www.w3.org/2000/svg" width="128" height="128" viewBox="0 0 128 128">
  <g id="hidden-cost" transform="translate(-358 -1524)">
    <g id="hidden-cost-2" data-name="hidden-cost">
      <rect id="Rectangle_1351" data-name="Rectangle 1351" width="128" height="128" rx="10" transform="translate(358 1524)" fill="#2a364d"/>
    </g>
    <g id="Group_1592" data-name="Group 1592" transform="translate(-171.42 -1676)">
      <path id="Path_3562" data-name="Path 3562" d="M70.293,61.245A14.873,14.873,0,1,1,85.165,46.4a14.873,14.873,0,0,1-14.873,14.84Zm0-27.006A12.133,12.133,0,1,0,82.426,46.4,12.133,12.133,0,0,0,70.293,34.239Z" transform="translate(523 3217.682)" fill="#fff"/>
      <path id="Path_3563" data-name="Path 3563" d="M80.615,14.37,71.85,5.613a1.37,1.37,0,0,0-1.942,0L61.142,14.37a1.376,1.376,0,1,0,1.942,1.95l6.445-6.445v13.6h2.7V9.875l6.445,6.445a1.373,1.373,0,0,0,1.942-1.942Z" transform="translate(521.967 3222.791)" fill="#fff"/>
      <path id="Path_3564" data-name="Path 3564" d="M80.607,79.195a1.37,1.37,0,0,0-1.942,0L72.22,85.64V72H69.481V85.616L63.035,79.17A1.37,1.37,0,1,0,61.094,81.1l8.806,8.79a1.378,1.378,0,0,0,.967.4,1.394,1.394,0,0,0,.975-.4l8.766-8.766a1.37,1.37,0,0,0,0-1.934Z" transform="translate(521.975 3209.811)" fill="#fff"/>
      <path id="Path_3566" data-name="Path 3566" d="M75.605,46.887a10.876,10.876,0,0,0-2.159-.806l-.709-.177a10.321,10.321,0,0,1-1.934-.612c-.693-.379-.935-.572-.935-1.265s1.1-1.112,2.506-1.192h.29a9.878,9.878,0,0,1,3.384.733,1.37,1.37,0,1,0,1.088-2.514,13.028,13.028,0,0,0-3.142-.87V39a1.37,1.37,0,1,0-2.739,0v1.2c-2.5.419-4.125,1.877-4.125,3.819a3.883,3.883,0,0,0,2.361,3.666,11.981,11.981,0,0,0,2.618.878l.661.161a8.379,8.379,0,0,1,1.523.572c.7.379.927.564.927,1.265s-1.1,1.112-2.5,1.184a9.588,9.588,0,0,1-3.674-.733,1.37,1.37,0,1,0-1.088,2.514,13.447,13.447,0,0,0,3.3.886v1.474a1.37,1.37,0,0,0,2.739,0V54.348c2.417-.451,3.964-1.885,3.964-3.787a3.9,3.9,0,0,0-2.353-3.674Z" transform="translate(520.725 3216.49)" fill="#fff"/>
    </g>
  </g>
</svg>
