<svg xmlns="http://www.w3.org/2000/svg" width="30.226" height="30" viewBox="0 0 30.226 30">
  <path id="house-phone_icon" d="M146.663,72.673a2.37,2.37,0,0,1-.695,1.963l-1.782,1.752c-2.144,2.144-5.828,2.234-8.757.242a81.349,81.349,0,0,1-17.545-17.424c-1.993-2.9-1.9-6.552.242-8.7l1.782-1.752a2.464,2.464,0,0,1,1.752-.695h.211a3.66,3.66,0,0,1,2.567,1.48l2.657,3.623a1.189,1.189,0,0,1,.03,1.54L125.1,56.732a2.885,2.885,0,0,0-.242,3.593,34.567,34.567,0,0,0,9.511,9.454,2.93,2.93,0,0,0,3.593-.242l2.024-2.023a1.224,1.224,0,0,1,1.54,0l3.623,2.627a3.535,3.535,0,0,1,1.51,2.536Z" transform="translate(-116.453 -48.062)" fill="#fff"/>
</svg>
