<svg xmlns="http://www.w3.org/2000/svg" width="40" height="40" viewBox="0 0 40 40">
  <g id="phone-icon" transform="translate(-1482 -63)">
    <rect id="Rectangle_247" data-name="Rectangle 247" width="40" height="40" rx="10" transform="translate(1482 63)" fill="#fff"/>
    <path id="phone_icon" d="M136.387,64.3a1.564,1.564,0,0,1-.458,1.3l-1.176,1.156a4.565,4.565,0,0,1-5.778.16,53.678,53.678,0,0,1-11.577-11.5,4.51,4.51,0,0,1,.16-5.739l1.176-1.156a1.626,1.626,0,0,1,1.156-.458h.139a2.415,2.415,0,0,1,1.694.977l1.753,2.391a.785.785,0,0,1,.02,1.016l-1.334,1.338a1.9,1.9,0,0,0-.16,2.371,22.809,22.809,0,0,0,6.276,6.238,1.933,1.933,0,0,0,2.371-.16l1.335-1.335a.807.807,0,0,1,1.016,0l2.391,1.734a2.333,2.333,0,0,1,1,1.674Z" transform="translate(1375.547 24.938)" fill="#213768"/>
  </g>
</svg>
