<svg xmlns="http://www.w3.org/2000/svg" width="128" height="128" viewBox="0 0 128 128">
  <g id="service-img3" transform="translate(-1402 -3200)">
    <rect id="Rectangle_1368" data-name="Rectangle 1368" width="128" height="128" rx="10" transform="translate(1402 3200)" fill="#2a364d"/>
    <g id="Group_1576" data-name="Group 1576" transform="translate(-1494 -1521)">
      <g id="Group_1575" data-name="Group 1575" transform="translate(2923 4745)">
        <path id="Path_3538" data-name="Path 3538" d="M20.383,4.877a11.48,11.48,0,0,1,11.1,8.63h26.3l2.877,2.877L57.78,19.26,54.9,16.383,52.026,19.26,49.15,16.383,46.273,19.26,43.4,16.383l-5.753,5.753H30.294a11.487,11.487,0,1,1-9.911-17.26m0-2.877A14.383,14.383,0,1,0,31.83,25.013h5.813a2.877,2.877,0,0,0,2.034-.843L43.4,20.451l.843.843a2.877,2.877,0,0,0,4.068,0l.843-.843.843.843a2.877,2.877,0,0,0,4.068,0l.843-.843.843.843a2.877,2.877,0,0,0,4.068,0l2.877-2.877a2.877,2.877,0,0,0,0-4.068l-2.877-2.877a2.877,2.877,0,0,0-2.034-.843H33.525A14.35,14.35,0,0,0,20.383,2Z" transform="translate(2.63 -2)" fill="#fff"/>
        <g id="Group_1574" data-name="Group 1574" transform="translate(0 31.643)">
          <path id="Path_3539" data-name="Path 3539" d="M55.711,27.877h-8.63c-.01,0-.018.005-.028.006a7.128,7.128,0,0,0-11.451,0c-.01,0-.018-.006-.028-.006H15.438a1.438,1.438,0,0,0,0,2.877H34.282a7.192,7.192,0,1,0,14.093,0h7.337a1.438,1.438,0,0,0,0-2.877Zm-14.383,8.63a4.315,4.315,0,1,1,4.315-4.315A4.32,4.32,0,0,1,41.328,36.507Z" transform="translate(17.643 9.52)" fill="#fff"/>
          <path id="Path_3540" data-name="Path 3540" d="M15.192,25a7.192,7.192,0,1,0,7.192,7.192A7.192,7.192,0,0,0,15.192,25Zm0,11.507a4.315,4.315,0,1,1,4.315-4.315A4.32,4.32,0,0,1,15.192,36.507Z" transform="translate(6.383 9.52)" fill="#fff"/>
          <path id="Path_3541" data-name="Path 3541" d="M28.89,15H17.383A14.383,14.383,0,0,0,3,29.383v17.26A2.877,2.877,0,0,0,5.877,49.52h8.775a10.025,10.025,0,0,1,17.115-5.593V17.877A2.877,2.877,0,0,0,28.89,15ZM5.877,29.383A11.52,11.52,0,0,1,17.383,17.877h5.753v8.63a11.527,11.527,0,0,0-11.143,8.63H5.877ZM28.89,38.749a12.908,12.908,0,0,0-16.476,7.894H5.877v-8.63h8.63a8.63,8.63,0,0,1,8.63-8.63h2.877V17.877H28.89Z" transform="translate(-3 -9.247)" fill="#fff"/>
          <ellipse id="Ellipse_176" data-name="Ellipse 176" cx="1" cy="1.5" rx="1" ry="1.5" transform="translate(58 40.357)" fill="#fff"/>
          <path id="Path_3542" data-name="Path 3542" d="M54.273,13h-37.4A2.877,2.877,0,0,0,14,15.877V47.52H34.3a10.032,10.032,0,0,1,14.063,0h5.913a2.877,2.877,0,0,0,2.877-2.877V15.877A2.877,2.877,0,0,0,54.273,13Zm0,31.643H49.451a12.905,12.905,0,0,0-16.245,0H16.877V15.877h37.4Z" transform="translate(17.643 -13)" fill="#fff"/>
          <circle id="Ellipse_177" data-name="Ellipse 177" cx="1.5" cy="1.5" r="1.5" transform="translate(20 40.357)" fill="#fff"/>
        </g>
        <path id="Path_3543" data-name="Path 3543" d="M13.753,7.877a2.877,2.877,0,1,1-2.877,2.877,2.877,2.877,0,0,1,2.877-2.877m0-2.877a5.753,5.753,0,1,0,5.753,5.753A5.76,5.76,0,0,0,13.753,5Z" transform="translate(6.383 3.63)" fill="#fff"/>
      </g>
    </g>
  </g>
</svg>
