<svg xmlns="http://www.w3.org/2000/svg" width="128" height="128" viewBox="0 0 128 128">
  <g id="service-img2" transform="translate(-896 -3200)">
    <rect id="Rectangle_1367" data-name="Rectangle 1367" width="128" height="128" rx="10" transform="translate(896 3200)" fill="#2a364d"/>
    <g id="Group_1573" data-name="Group 1573" transform="translate(262 -1803)">
      <g id="Group" transform="translate(648 5031)">
        <path id="Compound_Path" data-name="Compound Path" d="M101.947,54.879a6.646,6.646,0,0,0-1.582-4.114L82.854,31.038a2.215,2.215,0,0,0-1.582-.738H63.233A6.329,6.329,0,0,0,56.9,36.629V51.292H9.329A6.329,6.329,0,0,0,3,57.621V71.757a6.329,6.329,0,0,0,6.329,6.329h2.426a10.971,10.971,0,0,0,21.73,0H72.622a11.076,11.076,0,0,0,21.836,0h1.371a6.224,6.224,0,0,0,4.43-1.793,6.329,6.329,0,0,0,1.9-4.536ZM22.621,83.255A6.857,6.857,0,1,1,29.477,76.4a6.857,6.857,0,0,1-6.857,6.857Zm60.972,0A6.857,6.857,0,1,1,90.344,76.4a6.857,6.857,0,0,1-6.751,6.857ZM97.306,73.233a2.11,2.11,0,0,1-1.477.633H94.352a11.182,11.182,0,0,0-10.76-8.544,10.971,10.971,0,0,0-10.76,8.544H33.38a11.076,11.076,0,0,0-21.519,0H9.329a2.11,2.11,0,0,1-2.11-2.11V57.621a2.11,2.11,0,0,1,2.11-2.11H59.014a2,2,0,0,0,2.11-2.11V36.629a2.11,2.11,0,0,1,2.11-2.11H80.322L97.2,53.613a2.215,2.215,0,0,1,.527,1.371l.211,16.773a1.793,1.793,0,0,1-.633,1.477Z" transform="translate(-3 -14.688)" fill="#fff"/>
        <path id="Compound_Path-2" data-name="Compound Path" d="M75.159,39.338a2.532,2.532,0,0,0-1.688-.738H64.61a2.11,2.11,0,0,0-2.11,2.11V52.946a2.11,2.11,0,0,0,2.11,2.11h19.2a2.321,2.321,0,0,0,2-1.266,2.11,2.11,0,0,0-.316-2.215Zm-8.439,11.5V42.82h5.8l6.751,8.017Z" transform="translate(0.265 -14.232)" fill="#fff"/>
        <path id="Compound_Path-3" data-name="Compound Path" d="M46.916,47.99a2.11,2.11,0,0,0,2.11-2.11V17.61a2.11,2.11,0,0,0-2.11-2.11H14.11A2.11,2.11,0,0,0,12,17.61V45.88a2.11,2.11,0,0,0,2.11,2.11ZM27.4,19.72h6.224v4.852H27.4Zm-11.182,0h6.962v6.962a2.11,2.11,0,0,0,2.11,2.11H35.735a2.11,2.11,0,0,0,2.11-2.11V19.72h6.962V43.771H16.22Z" transform="translate(-2.506 -15.5)" fill="#fff"/>
      </g>
    </g>
  </g>
</svg>
