<svg xmlns="http://www.w3.org/2000/svg" width="128" height="128" viewBox="0 0 128 128">
  <g id="service-img1" transform="translate(-390 -3200)">
    <rect id="Rectangle_1366" data-name="Rectangle 1366" width="128" height="128" rx="10" transform="translate(390 3200)" fill="#2a364d"/>
    <g id="Group_1572" data-name="Group 1572" transform="translate(406 3222)">
      <path id="Path_3537" data-name="Path 3537" d="M93.114,39.389,80.906,27.181a1.519,1.519,0,0,0-1.079-.447H59.989a1.525,1.525,0,0,0-1.526,1.526V46.572H49.307V27.567l3.678,2.689a1.526,1.526,0,1,0,1.8-2.465l-19.838-14.5a1.53,1.53,0,0,0-1.8,0l-19.838,14.5a1.526,1.526,0,1,0,1.8,2.465l3.679-2.689V46.572H3.526A1.525,1.525,0,0,0,2,48.1v15.26a1.525,1.525,0,0,0,1.526,1.526H8.638a9.141,9.141,0,0,0,17.244,0H68.153a9.141,9.141,0,0,0,17.244,0h6.638a1.525,1.525,0,0,0,1.526-1.526V40.468A1.519,1.519,0,0,0,93.114,39.389Zm-2.6,1.711v.894H76.775V29.786H79.2ZM21.838,25.337l12.208-8.923,12.208,8.923V46.572h-6.1V35.127a6.1,6.1,0,1,0-12.208,0V46.572h-6.1Zm9.156,21.235V35.127a3.052,3.052,0,0,1,6.1,0V46.572ZM17.26,67.936a6.1,6.1,0,1,1,6.1-6.1A6.11,6.11,0,0,1,17.26,67.936Zm0-15.26A9.165,9.165,0,0,0,8.1,61.832H5.052V49.624H58.463V61.832H26.416A9.165,9.165,0,0,0,17.26,52.676Zm59.515,15.26a6.1,6.1,0,1,1,6.1-6.1A6.11,6.11,0,0,1,76.775,67.936Zm9.156-6.1a9.156,9.156,0,0,0-18.312,0h-6.1V29.786H73.723V43.52a1.525,1.525,0,0,0,1.526,1.526h15.26V61.832ZM17.26,57.254a4.578,4.578,0,1,0,4.578,4.578A4.584,4.584,0,0,0,17.26,57.254Zm0,6.1a1.526,1.526,0,1,1,1.526-1.526A1.527,1.527,0,0,1,17.26,63.358Zm59.515-6.1a4.578,4.578,0,1,0,4.578,4.578A4.584,4.584,0,0,0,76.775,57.254Zm0,6.1A1.526,1.526,0,1,1,78.3,61.832,1.527,1.527,0,0,1,76.775,63.358Z" fill="#fff"/>
    </g>
  </g>
</svg>
