<svg xmlns="http://www.w3.org/2000/svg" width="128" height="128" viewBox="0 0 128 128">
  <g id="service-img4" transform="translate(-390 -3549)">
    <rect id="Rectangle_1369" data-name="Rectangle 1369" width="128" height="128" rx="10" transform="translate(390 3549)" fill="#2a364d"/>
    <g id="Group_1579" data-name="Group 1579" transform="translate(418 3577)">
      <g id="Group_1577" data-name="Group 1577">
        <path id="Path_3544" data-name="Path 3544" d="M72.608,39.275a5.533,5.533,0,0,0-.88-2.97L64.357,24.093a5.806,5.806,0,0,0-4.951-2.75H48.516V13.862a1.039,1.039,0,0,0-1.1-1.1h-4.07A20.068,20.068,0,0,0,24.423,0,20.291,20.291,0,0,0,5.5,12.651H1.1a1.039,1.039,0,0,0-1.1,1.1V62.267a1.039,1.039,0,0,0,1.1,1.1H12.651v.88a8.471,8.471,0,0,0,16.942,0v-.88H48.3v.88a8.471,8.471,0,0,0,16.942,0v-.88h6.271a1.039,1.039,0,0,0,1.1-1.1Zm-13.2-15.732a3.646,3.646,0,0,1,3.08,1.76l7.371,12.1a3.709,3.709,0,0,1,.55,1.87V49.4H48.516V23.543ZM2.2,44.665H46.315V49.4H2.2ZM24.423,2.2c1.76,0,3.63,2.75,4.841,7.261H19.582C20.792,4.951,22.663,2.2,24.423,2.2Zm5.391,9.461a44.473,44.473,0,0,1,.77,7.041H18.372a43.057,43.057,0,0,1,.77-7.041ZM42.575,18.7H32.784a69.585,69.585,0,0,0-.66-7.041h8.471A18.627,18.627,0,0,1,42.575,18.7Zm-12.1,2.2a43.057,43.057,0,0,1-.77,7.041H19.032a44.473,44.473,0,0,1-.77-7.041Zm-14.3-2.2H6.381a16.826,16.826,0,0,1,1.98-7.041h8.471A47.792,47.792,0,0,0,16.172,18.7Zm0,2.2a69.586,69.586,0,0,0,.66,7.041H8.361A15.353,15.353,0,0,1,6.381,20.9Zm1.1,9.241a19.885,19.885,0,0,0,2.75,6.711A17.766,17.766,0,0,1,9.791,30.143Zm2.31,0h9.681c-1.21,4.511-3.08,7.261-4.841,7.261S20.792,34.654,19.582,30.143Zm11.991,0h7.481a18.122,18.122,0,0,1-10.231,6.711A18.974,18.974,0,0,0,31.574,30.143Zm8.911-2.2H32.014a37.258,37.258,0,0,0,.66-7.041h9.791A15.353,15.353,0,0,1,40.485,27.943ZM39.055,9.461H31.574a19.885,19.885,0,0,0-2.75-6.711A17.766,17.766,0,0,1,39.055,9.461ZM20.132,2.75a19.885,19.885,0,0,0-2.75,6.711H9.791A18.392,18.392,0,0,1,20.132,2.75Zm-15.4,12.1A17.948,17.948,0,0,0,4.07,19.8c0,10.891,9.131,19.8,20.352,19.8s20.352-8.911,20.352-19.8a17.948,17.948,0,0,0-.66-4.951h2.2v27.5H2.2v-27.5ZM21.122,70.408a6.271,6.271,0,1,1,6.271-6.271A6.339,6.339,0,0,1,21.122,70.408Zm35.534,0a6.271,6.271,0,1,1,6.271-6.271A6.268,6.268,0,0,1,56.657,70.408Zm13.752-9.241H64.577a8.515,8.515,0,0,0-15.842,0h-19.8a8.515,8.515,0,0,0-15.842,0H2.2V51.6H70.408Z" fill="#fff"/>
      </g>
      <g id="Group_1578" data-name="Group 1578" transform="translate(52.476 27.393)">
        <path id="Path_3545" data-name="Path 3545" d="M48.91,36.891h11a1.039,1.039,0,0,0,1.1-1.1,1,1,0,0,0-.33-.77L55.291,26.33a2.91,2.91,0,0,0-2.53-1.43H48.8A1.039,1.039,0,0,0,47.7,26v9.681A1.3,1.3,0,0,0,48.91,36.891Zm1.1-9.791h2.86a.784.784,0,0,1,.66.33l4.4,7.151H50.01V27.1Z" transform="translate(-47.7 -24.9)" fill="#fff"/>
      </g>
    </g>
  </g>
</svg>
