<svg xmlns="http://www.w3.org/2000/svg" width="128" height="128" viewBox="0 0 128 128">
  <g id="service-img5" transform="translate(-896 -3549)">
    <rect id="Rectangle_1370" data-name="Rectangle 1370" width="128" height="128" rx="10" transform="translate(896 3549)" fill="#2a364d"/>
    <g id="Group_1580" data-name="Group 1580" transform="translate(540.537 -1894.684)">
      <path id="Path_3546" data-name="Path 3546" d="M49.764,62.88H63.14V51.5H49.764Zm1.181-10.2H61.959V61.7H50.945Z" transform="translate(383.303 5471.345)" fill="#fff" stroke="#fff" stroke-width="1"/>
      <path id="Path_3547" data-name="Path 3547" d="M71.871,49.38,53.218,35.139,34.564,49.38l.716.938L41.719,45.4V63.8h23V45.4l6.44,4.917ZM63.533,62.617H42.9V44.5l10.318-7.877L63.533,44.5Z" transform="translate(386.537 5474.826)" fill="#fff" stroke="#fff" stroke-width="1"/>
      <path id="Path_3548" data-name="Path 3548" d="M11.621,21V9.62H-1.756V21H11.621ZM-.575,10.8H10.44v9.022H-.575Z" transform="translate(394.266 5480.256)" fill="#fff" stroke="#fff" stroke-width="1"/>
      <rect id="Rectangle_2721" data-name="Rectangle 2721" width="1.181" height="2.814" transform="translate(393.634 5481.247) rotate(52.648)" fill="#fff" stroke="#fff" stroke-width="1"/>
      <path id="Path_3549" data-name="Path 3549" d="M-2.63-3.433l.716.938L1.7-5.252,12.014,2.624V20.741H-8.618V2.624l1.23-.939L-8.1.747-16.955,7.5l.716.938L-9.8,3.526v18.4H13.2V3.526l6.439,4.917.717-.938L1.7-6.737Z" transform="translate(397.5 5483.737)" fill="#fff" stroke="#fff" stroke-width="1"/>
      <path id="Path_3550" data-name="Path 3550" d="M3.192,54.533V38.381L7,44.153l.986-.65L2.6,35.341-2.781,43.5l.986.65,3.806-5.772V54.533a3.183,3.183,0,0,0,3.179,3.18h16.4V56.532H5.189A2,2,0,0,1,3.192,54.533Z" transform="translate(394.484 5474.783)" fill="#fff" stroke="#fff" stroke-width="1"/>
      <path id="Path_3551" data-name="Path 3551" d="M55.221,4.42V20.572L51.415,14.8l-.986.65,5.382,8.162,5.383-8.162-.986-.65L56.4,20.572V4.42a3.182,3.182,0,0,0-3.179-3.179h-16.4V2.422h16.4A2,2,0,0,1,55.221,4.42Z" transform="translate(386.055 5482.039)" fill="#fff" stroke="#fff" stroke-width="1"/>
    </g>
  </g>
</svg>
