<svg xmlns="http://www.w3.org/2000/svg" width="128" height="128" viewBox="0 0 128 128">
  <g id="service-img6" transform="translate(-1402 -3549)">
    <rect id="Rectangle_1371" data-name="Rectangle 1371" width="128" height="128" rx="10" transform="translate(1402 3549)" fill="#2a364d"/>
    <g id="Group_1588" data-name="Group 1588" transform="translate(-193 -2)">
      <g id="Group_1587" data-name="Group 1587" transform="translate(1626 3582)">
        <g id="Group_1586" data-name="Group 1586" transform="translate(0 0)">
          <path id="Path_3552" data-name="Path 3552" d="M34.5,68A33.5,33.5,0,1,1,68,34.5,33.539,33.539,0,0,1,34.5,68Zm0-65.919A32.419,32.419,0,1,0,66.919,34.5,32.456,32.456,0,0,0,34.5,2.081Z" transform="translate(-1 -1)" fill="#fff" stroke="#fff" stroke-width="1"/>
          <g id="Group_1585" data-name="Group 1585" transform="translate(8.177 4.142)">
            <g id="Group_1582" data-name="Group 1582" transform="translate(0.8 6.978)">
              <rect id="Rectangle_2722" data-name="Rectangle 2722" width="10.252" height="1.081" transform="translate(19.849 47.131)" fill="#fff" stroke="#fff" stroke-width="1"/>
              <rect id="Rectangle_2723" data-name="Rectangle 2723" width="10.252" height="1.081" transform="translate(19.849 51.231)" fill="#fff" stroke="#fff" stroke-width="1"/>
              <path id="Path_3553" data-name="Path 3553" d="M38.464,55.166H38.45l-9.613-.061a1.941,1.941,0,0,1-1.37-.571,1.906,1.906,0,0,1-.564-1.368v-.211a13.748,13.748,0,0,0-4.932-10.5,17.492,17.492,0,0,1-6.136-14.987A18.054,18.054,0,0,1,46.191,16.218a17.5,17.5,0,0,1,5.561,12.952A17.758,17.758,0,0,1,45.3,42.732a13.754,13.754,0,0,0-4.9,10.52A1.935,1.935,0,0,1,38.464,55.166Zm-4.689-42.8c-.378,0-.756.012-1.138.037A16.854,16.854,0,0,0,16.914,27.566a16.42,16.42,0,0,0,5.762,14.071,14.827,14.827,0,0,1,5.31,11.326v.211a.833.833,0,0,0,.247.6.868.868,0,0,0,.613.254l9.613.061h.006a.857.857,0,0,0,.865-.841A14.827,14.827,0,0,1,44.615,41.9a16.679,16.679,0,0,0,6.06-12.74h0A16.419,16.419,0,0,0,45.452,17,16.865,16.865,0,0,0,33.775,12.371Z" transform="translate(-8.787 -11.29)" fill="#fff" stroke="#fff" stroke-width="1"/>
              <g id="Group_1581" data-name="Group 1581" transform="translate(0 20.498)">
                <path id="Path_3554" data-name="Path 3554" d="M21.93,49.911a1.691,1.691,0,0,1-1.566-1.056l-.286-.714a.6.6,0,0,0-.528-.374,10.611,10.611,0,0,1-1.139-.126.588.588,0,0,0-.622.312l-.168.341a1.634,1.634,0,0,1-.957.84,1.669,1.669,0,0,1-1.273-.084l-1.05-.513a1.666,1.666,0,0,1-.775-2.223l.169-.345a.573.573,0,0,0-.108-.655,5.453,5.453,0,0,1-.492-.572.592.592,0,0,0-.685-.191l-.35.134a1.679,1.679,0,0,1-2.167-.967l-.33-.863a1.65,1.65,0,0,1,1.084-2.18l.324-.093a.564.564,0,0,0,.412-.575,5.724,5.724,0,0,1,.006-.707.591.591,0,0,0-.334-.566l-.844-.413a1.669,1.669,0,0,1-.848-.952A1.638,1.638,0,0,1,9.476,36.1l.441-.9a1.644,1.644,0,0,1,.957-.84,1.673,1.673,0,0,1,1.273.083l.827.4a.586.586,0,0,0,.68-.111,9.015,9.015,0,0,1,.752-.7.562.562,0,0,0,.177-.62l-.224-.669a1.65,1.65,0,0,1,1.056-2.1l.976-.318a1.656,1.656,0,0,1,.893-.021.541.541,0,0,1,.408.423A16.624,16.624,0,0,0,23.2,40.107h0a15.463,15.463,0,0,1,3.993,5.284.541.541,0,0,1-.492.765h0A1.652,1.652,0,0,1,25.968,46l-.191-.094a.585.585,0,0,0-.645.08,5.783,5.783,0,0,1-.549.428.566.566,0,0,0-.2.695l.086.205a1.648,1.648,0,0,1-1.041,2.222l-1.008.307A1.7,1.7,0,0,1,21.93,49.911Zm-3.622-3.36a1.713,1.713,0,0,1,.276.023,9.55,9.55,0,0,0,1.021.113,1.687,1.687,0,0,1,1.477,1.053l.286.715a.6.6,0,0,0,.729.35l1.009-.308a.568.568,0,0,0,.361-.768l-.086-.205a1.658,1.658,0,0,1,.588-2,4.5,4.5,0,0,0,.442-.344,1.646,1.646,0,0,1,1.244-.411,14.425,14.425,0,0,0-3.162-3.835h0a17.733,17.733,0,0,1-5.776-9.568l-.969.316a.569.569,0,0,0-.365.725l.224.668a1.652,1.652,0,0,1-.519,1.8,8,8,0,0,0-.659.612,1.661,1.661,0,0,1-1.93.33l-.826-.4a.6.6,0,0,0-.453-.03.569.569,0,0,0-.332.291l-.441.9a.565.565,0,0,0-.024.44.592.592,0,0,0,.3.338l.845.413a1.657,1.657,0,0,1,.937,1.619,4.378,4.378,0,0,0,0,.571,1.643,1.643,0,0,1-1.192,1.669l-.324.093a.568.568,0,0,0-.375.753l.332.866a.6.6,0,0,0,.772.345l.35-.134A1.678,1.678,0,0,1,14,44.1a4.386,4.386,0,0,0,.394.459,1.658,1.658,0,0,1,.312,1.891l-.169.344a.585.585,0,0,0,.278.778l1.05.513a.6.6,0,0,0,.453.03.568.568,0,0,0,.332-.29l.168-.343A1.647,1.647,0,0,1,18.308,46.551Z" transform="translate(-9.308 -30.259)" fill="#fff" stroke="#fff" stroke-width="1"/>
                <path id="Path_3555" data-name="Path 3555" d="M19.127,43.381a4.071,4.071,0,0,1-1.469-.276,4,4,0,0,1-2.189-2.014,3.643,3.643,0,0,1-.122-2.9,3.772,3.772,0,0,1,3.828-2.337.542.542,0,0,1,.415.243A16.76,16.76,0,0,0,22.7,39.634a.538.538,0,0,1,.185.468,3.525,3.525,0,0,1-.211.916A3.764,3.764,0,0,1,19.127,43.381Zm-.285-6.46a2.661,2.661,0,0,0-2.488,1.656,2.576,2.576,0,0,0,.091,2.051,2.925,2.925,0,0,0,1.6,1.47,2.769,2.769,0,0,0,3.622-1.468,2.17,2.17,0,0,0,.1-.371A17.846,17.846,0,0,1,18.842,36.921Z" transform="translate(-8.84 -29.809)" fill="#fff" stroke="#fff" stroke-width="1"/>
              </g>
            </g>
            <g id="Group_1583" data-name="Group 1583" transform="translate(0 0)">
              <rect id="Rectangle_2724" data-name="Rectangle 2724" width="1.081" height="4.19" transform="translate(6.096 7.885) rotate(-45.365)" fill="#fff" stroke="#fff" stroke-width="1"/>
              <rect id="Rectangle_2725" data-name="Rectangle 2725" width="4.217" height="1.081" transform="translate(0 25.774)" fill="#fff" stroke="#fff" stroke-width="1"/>
              <rect id="Rectangle_2726" data-name="Rectangle 2726" width="4.217" height="1.081" transform="translate(46.429 26.764)" fill="#fff" stroke="#fff" stroke-width="1"/>
              <rect id="Rectangle_2727" data-name="Rectangle 2727" width="4.19" height="1.081" transform="translate(41.519 10.762) rotate(-44.603)" fill="#fff" stroke="#fff" stroke-width="1"/>
              <rect id="Rectangle_2728" data-name="Rectangle 2728" width="1.081" height="4.163" transform="translate(25.284)" fill="#fff" stroke="#fff" stroke-width="1"/>
            </g>
            <g id="Group_1584" data-name="Group 1584" transform="translate(18.583 12.527)">
              <path id="Path_3556" data-name="Path 3556" d="M32.955,47.079a.542.542,0,0,1-.387-.163l-2.65-2.722a.539.539,0,0,1-.153-.377V29.981a7.851,7.851,0,0,1-4-6.449,7.192,7.192,0,0,1,14.382,0,7.364,7.364,0,0,1-4,6.164v5.259a.538.538,0,0,1-.134.356L34.968,36.5,36.01,37.7a.54.54,0,0,1-.006.719l-1.018,1.126L36,40.62a.539.539,0,0,1,.006.732l-1,1.111.984.972a.542.542,0,0,1,.008.762l-2.65,2.722A.543.543,0,0,1,32.955,47.079ZM30.845,43.6l2.109,2.167,1.888-1.94-.97-.957a.54.54,0,0,1-.021-.747l1.018-1.126-1.011-1.078a.539.539,0,0,1-.006-.732l1.03-1.138-1.035-1.187a.539.539,0,0,1,0-.711l1.218-1.4V29.372a.54.54,0,0,1,.294-.481c1.711-.876,3.708-2.805,3.708-5.36a6.111,6.111,0,0,0-12.221,0,6.764,6.764,0,0,0,3.71,5.65.54.54,0,0,1,.292.48V43.6ZM35.6,34.955h0Z" transform="translate(-25.763 -16.425)" fill="#fff" stroke="#fff" stroke-width="1"/>
              <path id="Path_3557" data-name="Path 3557" d="M32.656,25.112a2.567,2.567,0,0,1,0-5.133,2.6,2.6,0,0,1,2.567,2.567A2.539,2.539,0,0,1,32.656,25.112Zm0-4.051a1.486,1.486,0,1,0,1.486,1.486A1.507,1.507,0,0,0,32.656,21.061Z" transform="translate(-25.414 -16.138)" fill="#fff" stroke="#fff" stroke-width="1"/>
            </g>
          </g>
        </g>
      </g>
    </g>
  </g>
</svg>
